<?xml version="1.0" standalone="no"?>
<!DOCTYPE svg PUBLIC "-//W3C//DTD SVG 20010904//EN"
 "http://www.w3.org/TR/2001/REC-SVG-20010904/DTD/svg10.dtd">
<svg version="1.0" xmlns="http://www.w3.org/2000/svg"
 width="531.000000pt" height="470.000000pt" viewBox="0 0 531.000000 470.000000"
 preserveAspectRatio="xMidYMid meet">

<g transform="translate(0.000000,470.000000) scale(0.100000,-0.100000)"
fill="#000000" stroke="none">
<path d="M2827 3559 c-17 -10 -48 -68 -67 -129 -5 -14 -31 -88 -58 -165 -65
-184 -74 -206 -83 -230 -4 -11 -15 -40 -23 -65 -8 -25 -26 -76 -41 -115 -14
-38 -34 -95 -44 -125 -11 -30 -31 -86 -45 -125 -15 -38 -42 -117 -62 -174 -19
-57 -40 -113 -46 -125 -6 -11 -15 -34 -19 -51 -8 -34 -45 -140 -59 -170 -5
-11 -23 -63 -41 -115 -17 -52 -37 -108 -44 -125 -7 -16 -30 -77 -49 -135 -20
-58 -39 -112 -43 -120 -12 -30 -11 -42 8 -61 16 -16 34 -19 120 -19 55 0 109
5 120 11 23 12 43 55 98 212 21 62 60 171 86 242 26 72 51 144 55 160 5 17 21
62 35 100 14 39 42 117 61 175 19 58 39 112 44 122 5 9 25 65 45 125 19 59 40
117 45 128 6 11 23 61 39 110 16 50 35 104 42 120 7 17 18 48 25 70 6 22 31
92 54 155 23 63 56 155 73 204 l31 88 -23 19 c-19 16 -40 19 -120 19 -53 0
-104 -5 -114 -11z"/>
<path d="M1460 2875 c-318 -159 -449 -230 -457 -247 -15 -27 -17 -166 -4 -201
8 -20 100 -70 462 -251 250 -125 463 -225 474 -224 18 3 20 11 23 108 2 62 -2
113 -8 125 -11 21 -44 40 -165 95 -87 40 -166 77 -275 128 -47 22 -120 56
-162 76 -43 20 -78 39 -78 42 0 3 46 27 103 53 102 48 249 118 447 213 58 28
113 57 123 66 14 12 17 32 17 117 0 102 -7 126 -39 124 -9 0 -216 -101 -461
-224z"/>
<path d="M3240 3081 c-14 -27 -13 -194 2 -225 6 -14 20 -28 31 -32 11 -3 58
-24 106 -46 94 -44 173 -81 266 -123 33 -15 101 -47 151 -70 50 -23 101 -46
113 -50 32 -10 16 -23 -79 -65 -41 -18 -126 -57 -188 -87 -62 -29 -114 -53
-117 -53 -21 0 -276 -133 -284 -149 -14 -25 -14 -186 -1 -212 17 -32 -54 -63
658 288 161 80 296 152 300 161 4 10 7 58 7 108 0 76 -3 95 -19 113 -11 12
-24 21 -29 21 -6 0 -208 99 -450 220 -242 121 -444 220 -448 220 -5 0 -13 -9
-19 -19z"/>
</g>
</svg>
